# Blender v2.82 (sub 7) OBJ File: ''
# www.blender.org
mtllib map.mtl
o Cube
v 26.130630 0.391525 -26.130630
v 26.130630 -0.391525 -26.130630
v 26.130630 0.391525 26.130630
v 26.130630 -0.391525 26.130630
v -26.130630 0.391525 -26.130630
v -26.130630 -0.391525 -26.130630
v -26.130630 0.391525 26.130630
v -26.130630 -0.391525 26.130630
v -8.280730 -7.267265 8.280730
v -8.280730 9.294195 8.280730
v -8.280730 -7.267265 -8.280730
v -8.280730 9.294195 -8.280730
v 8.280730 -7.267265 8.280730
v 8.280730 9.294195 8.280730
v 8.280730 -7.267265 -8.280730
v 8.280730 9.294195 -8.280730
v -11.551197 -2.861722 14.223255
v -11.551197 4.209188 14.223255
v -11.551197 -2.861722 4.470212
v -11.551197 4.209188 4.470212
v 4.169427 -2.861722 14.223255
v 4.169427 4.209188 14.223255
v 4.169427 -2.861722 4.470212
v 4.169427 4.209188 4.470212
v -10.249427 -1.191968 5.680948
v -10.249427 2.160650 5.680948
v -10.249427 -1.191968 -4.077067
v -10.249427 2.160650 -4.077067
v -8.249427 -1.191968 5.680948
v -8.249427 2.160650 5.680948
v -8.249427 -1.191968 -4.077067
v -8.249427 2.160650 -4.077067
v -4.456581 3.931581 11.181342
v -4.456581 6.705142 11.181342
v -4.456581 3.931581 6.250300
v -4.456581 6.705142 6.250300
v 1.404071 3.931581 11.181342
v 1.404071 6.705142 11.181342
v 1.404071 3.931581 6.250300
v 1.404071 6.705142 6.250300
vt 0.625000 0.500000
vt 0.875000 0.500000
vt 0.875000 0.750000
vt 0.625000 0.750000
vt 0.375000 0.750000
vt 0.625000 1.000000
vt 0.375000 1.000000
vt 0.375000 0.000000
vt 0.625000 0.000000
vt 0.625000 0.250000
vt 0.375000 0.250000
vt 0.125000 0.500000
vt 0.375000 0.500000
vt 0.125000 0.750000
vt 0.375000 0.000000
vt 0.625000 0.000000
vt 0.625000 0.250000
vt 0.375000 0.250000
vt 0.625000 0.500000
vt 0.375000 0.500000
vt 0.625000 0.750000
vt 0.375000 0.750000
vt 0.625000 1.000000
vt 0.375000 1.000000
vt 0.125000 0.500000
vt 0.125000 0.750000
vt 0.875000 0.500000
vt 0.875000 0.750000
vt 0.375000 0.000000
vt 0.625000 0.000000
vt 0.625000 0.250000
vt 0.375000 0.250000
vt 0.625000 0.500000
vt 0.375000 0.500000
vt 0.625000 0.750000
vt 0.375000 0.750000
vt 0.625000 1.000000
vt 0.375000 1.000000
vt 0.125000 0.500000
vt 0.125000 0.750000
vt 0.875000 0.500000
vt 0.875000 0.750000
vt 0.375000 0.000000
vt 0.625000 0.000000
vt 0.625000 0.250000
vt 0.375000 0.250000
vt 0.625000 0.500000
vt 0.375000 0.500000
vt 0.625000 0.750000
vt 0.375000 0.750000
vt 0.625000 1.000000
vt 0.375000 1.000000
vt 0.125000 0.500000
vt 0.125000 0.750000
vt 0.875000 0.500000
vt 0.875000 0.750000
vt 0.375000 0.000000
vt 0.625000 0.000000
vt 0.625000 0.250000
vt 0.375000 0.250000
vt 0.625000 0.500000
vt 0.375000 0.500000
vt 0.625000 0.750000
vt 0.375000 0.750000
vt 0.625000 1.000000
vt 0.375000 1.000000
vt 0.125000 0.500000
vt 0.125000 0.750000
vt 0.875000 0.500000
vt 0.875000 0.750000
vn 0.0000 1.0000 0.0000
vn 0.0000 0.0000 1.0000
vn -1.0000 0.0000 0.0000
vn 0.0000 -1.0000 0.0000
vn 1.0000 0.0000 0.0000
vn 0.0000 0.0000 -1.0000
usemtl Material
s off
f 1/1/1 5/2/1 7/3/1 3/4/1
f 4/5/2 3/4/2 7/6/2 8/7/2
f 8/8/3 7/9/3 5/10/3 6/11/3
f 6/12/4 2/13/4 4/5/4 8/14/4
f 2/13/5 1/1/5 3/4/5 4/5/5
f 6/11/6 5/10/6 1/1/6 2/13/6
f 9/15/3 10/16/3 12/17/3 11/18/3
f 11/18/6 12/17/6 16/19/6 15/20/6
f 15/20/5 16/19/5 14/21/5 13/22/5
f 13/22/2 14/21/2 10/23/2 9/24/2
f 11/25/4 15/20/4 13/22/4 9/26/4
f 16/19/1 12/27/1 10/28/1 14/21/1
f 17/29/3 18/30/3 20/31/3 19/32/3
f 19/32/6 20/31/6 24/33/6 23/34/6
f 23/34/5 24/33/5 22/35/5 21/36/5
f 21/36/2 22/35/2 18/37/2 17/38/2
f 19/39/4 23/34/4 21/36/4 17/40/4
f 24/33/1 20/41/1 18/42/1 22/35/1
f 25/43/3 26/44/3 28/45/3 27/46/3
f 27/46/6 28/45/6 32/47/6 31/48/6
f 31/48/5 32/47/5 30/49/5 29/50/5
f 29/50/2 30/49/2 26/51/2 25/52/2
f 27/53/4 31/48/4 29/50/4 25/54/4
f 32/47/1 28/55/1 26/56/1 30/49/1
f 33/57/3 34/58/3 36/59/3 35/60/3
f 35/60/6 36/59/6 40/61/6 39/62/6
f 39/62/5 40/61/5 38/63/5 37/64/5
f 37/64/2 38/63/2 34/65/2 33/66/2
f 35/67/4 39/62/4 37/64/4 33/68/4
f 40/61/1 36/69/1 34/70/1 38/63/1
